<svg id="Layer_1" data-name="Layer 1" xmlns="http://www.w3.org/2000/svg" viewBox="0 0 185.22 102.76"><defs><style>.cls-1,.cls-12{fill:none;}.cls-10,.cls-2,.cls-6{isolation:isolate;}.cls-2{font-size:72px;font-family:SourceSansPro-Regular, Source Sans Pro;}.cls-2,.cls-5{fill:#474d56;}.cls-3{letter-spacing:-0.02em;}.cls-4{letter-spacing:-0.01em;}.cls-10,.cls-6{fill:#6aa68f;}.cls-6{opacity:0.69;}.cls-7{fill:#70a896;}.cls-8{fill:#619081;}.cls-9{fill:#8bcdb7;}.cls-10{opacity:0.7;}.cls-11{fill:#72a796;}.cls-12{stroke:#474d56;stroke-linecap:round;stroke-linejoin:round;stroke-width:4px;}</style></defs><title>logo</title><rect class="cls-1" x="0.16" y="29.44" width="185.06" height="57.72"/><text class="cls-2" transform="translate(0.17 80.7)"><tspan class="cls-3">s</tspan><tspan x="28.73" y="0">t</tspan><tspan class="cls-4" x="53.06" y="0">r</tspan><tspan x="77.33" y="0">o</tspan></text><g id="Layer_4" data-name="Layer 4"><rect class="cls-1" y="30.4" width="180.69" height="57.72"/><text class="cls-2" transform="translate(0 81.66)"><tspan xml:space="preserve">        ll</tspan></text></g><path class="cls-5" d="M149.9,16.89h0l.69,0c4.6.33,9.94,4.78,10.59,8.82a11.7,11.7,0,0,1-.1,2.33c-.27,2.72-.73,7.28,2.57,11.56a33.71,33.71,0,0,0,3.47,3.75,9.79,9.79,0,0,1,2.54,3.09,13.32,13.32,0,0,1-3,14.59c-3.66,3.43-10.39,3.46-16.9,3.48-1.23,0-2.5,0-3.73,0H142.9c-.35,0-.71,0-1.06,0a18.12,18.12,0,0,1-15.42-8.41,14.87,14.87,0,0,1-.48-15,16.73,16.73,0,0,1,4.87-5.75c.26-.2.58-.42.92-.65A16.09,16.09,0,0,0,137,29.6a15,15,0,0,0,1.71-5.2c.05-.27.11-.64.15-.81a13,13,0,0,1,11.06-6.7m0-7c-7,0-14.38,4.37-17.43,10.82-.81,1.72-.56,3.7-1.54,5.39s-2.77,2.61-4.36,3.82a23.74,23.74,0,0,0-6.89,8.17c-8.28,16.44,4.95,33.53,22.15,33.53.48,0,1,0,1.45,0h2.83c8.41-.2,18.74.78,25.34-5.42a20.37,20.37,0,0,0,4.63-22.47c-1.64-3.8-4.52-5.25-6.9-8.34-2.54-3.3-.49-6.94-1.1-10.73-1.23-7.62-9.57-14.16-17-14.69-.38,0-.78,0-1.18,0Z" transform="translate(-5.41 -9.89)"/><path class="cls-6" d="M167.83,68.73c9.75-6.54,12.24-18.88,5.8-28.15a20.38,20.38,0,0,0-5.93-5.66c-.72-.45-1.2-.8-.88-1.82,1.66-5.13.67-10.44-1.71-15.14,8.81.32,15,9.88,12,18.58-.56,1.66-.37,2.3,1.23,3.18a15.19,15.19,0,0,1-6.25,28.49C170.69,68.38,169.33,68.68,167.83,68.73Z" transform="translate(-5.41 -9.89)"/><path class="cls-6" d="M133.86,18.39a23.91,23.91,0,0,0-2.46,7.8,2.1,2.1,0,0,1-1.28,1.74c-7.72,4.09-12,10.6-12.66,19.2a22.36,22.36,0,0,0,11,20.75c.24.13.45.29.69.43-6.6,0-12.15-2.27-16.05-7.82a17.94,17.94,0,0,1,6.65-26.38,3.87,3.87,0,0,0,2.51-3.52C123.12,23.9,127.69,19.22,133.86,18.39Z" transform="translate(-5.41 -9.89)"/><path class="cls-7" d="M162.92,65.58c-1.8.91-11.27,2.49-13,.94-4.54-4.12,6.69-7.9,8.52-8.86,1.56-.82,5-2.12,2.81-4.41-1.6-1.68-4.56.66-6.15,1.45-4.79,2.38-5.67,3.57-5.67-2.18,0-5.46,1.23-12.42,0-17.7-.35-1.48-1-3.46-3.13-2.28-1.8,1-1.07,5.22-1.07,6.85,0,1.25.74,4.62-.56,5.1s-6-2.91-7.18-3.39c-1.59-.65-3.5-1.85-4.54.24-1.32,2.62,3.85,4.06,5.41,4.8,1.84.87,5.48,1.66,6.59,3.38s.28,6.36.28,8.38c0,1.5.76,6.58,0,7.85-1,1.58-4.2,1-5.84.87-8.72-.77-16.06-7.05-17.27-15.88-1.17-8.55,3.37-15.11,10.41-19.29,4.44-2.63,2.63-5.58,4.61-9.88s5.79-7.62,10.43-6a15.36,15.36,0,0,1,9.55,10.45,18.3,18.3,0,0,1,.27,7.83c-.56,3.15-1.33,3,1,5.13,3.84,3.58,7,5.64,8.34,11.14S167.19,61.7,162.92,65.58Z" transform="translate(-5.41 -9.89)"/><path class="cls-8" d="M162.5,65.79c3-5.18,4.81-10.63,2.79-16.56a18.58,18.58,0,0,0-4-6.82c-1.18-1.23-5.29-2.9-5.83-4.31s1.09-4.39,1.22-6.09a16.05,16.05,0,0,0-1.13-7.35c-2.24-5.43-6.66-7.56-12-9.26,6.75-2.25,14.39-.61,17.75,6.07a13.89,13.89,0,0,1,1.2,8.89c-.83,4.13-2.55,4.79,1.3,7.39C174.85,45.23,175.07,59.26,162.5,65.79Z" transform="translate(-5.41 -9.89)"/><path class="cls-9" d="M157.55,66.82a65.84,65.84,0,0,1-18.8-.28c-10.5-1.64-9.51-25.37-9.51-25.37L136,36.12s10.43-7.78,11.42-8,6.39,12.47,6.45,12.6,6.88,7.39,6.88,7.39,2.12,4.76,2.51,5.21S157.55,66.82,157.55,66.82Z" transform="translate(-5.41 -9.89)"/><g id="Layer_6" data-name="Layer 6"><path class="cls-5" d="M134.7,17.31h0l.69,0c4.6.33,9.94,4.78,10.59,8.82a11.7,11.7,0,0,1-.1,2.33c-.27,2.72-.73,7.28,2.57,11.56a33.71,33.71,0,0,0,3.47,3.75,9.79,9.79,0,0,1,2.54,3.09,13.32,13.32,0,0,1-3,14.59c-3.66,3.43-10.39,3.46-16.9,3.48-1.23,0-2.5,0-3.73,0H127.7c-.35,0-.71,0-1.06,0a18.12,18.12,0,0,1-15.42-8.41,14.87,14.87,0,0,1-.48-15,16.73,16.73,0,0,1,4.87-5.75c.26-.2.58-.42.92-.65A16.09,16.09,0,0,0,121.78,30a15,15,0,0,0,1.71-5.2c.05-.27.11-.64.15-.81a13,13,0,0,1,11.06-6.7m0-7c-7,0-14.38,4.37-17.43,10.82-.81,1.72-.56,3.7-1.54,5.39s-2.77,2.61-4.36,3.82a23.74,23.74,0,0,0-6.89,8.17C96.2,55,109.43,72,126.63,72c.48,0,1,0,1.45,0h2.83c8.41-.2,18.74.78,25.34-5.42a20.37,20.37,0,0,0,4.63-22.47c-1.64-3.8-4.52-5.25-6.9-8.34-2.54-3.3-.49-6.94-1.1-10.73-1.23-7.62-9.57-14.16-17-14.69-.38,0-.78,0-1.18,0Z" transform="translate(-5.41 -9.89)"/><path class="cls-10" d="M152.63,69.15c9.75-6.54,12.24-18.88,5.8-28.15a20.38,20.38,0,0,0-5.93-5.66c-.72-.45-1.2-.8-.88-1.82,1.66-5.13.67-10.44-1.71-15.14,8.81.32,15,9.88,12,18.58-.56,1.66-.37,2.3,1.23,3.18a15.19,15.19,0,0,1-6.25,28.49C155.5,68.79,154.13,69.09,152.63,69.15Z" transform="translate(-5.41 -9.89)"/><path class="cls-6" d="M118.66,18.81a23.91,23.91,0,0,0-2.46,7.8,2.1,2.1,0,0,1-1.28,1.74c-7.72,4.09-12,10.6-12.66,19.2a22.36,22.36,0,0,0,11,20.75c.24.13.45.29.69.43-6.6,0-12.15-2.27-16-7.82a17.94,17.94,0,0,1,6.65-26.38A3.87,3.87,0,0,0,107.09,31C107.93,24.31,112.49,19.64,118.66,18.81Z" transform="translate(-5.41 -9.89)"/><path class="cls-9" d="M147.72,66c-1.8.91-11.27,2.49-13,.94-4.54-4.12,6.69-7.9,8.52-8.86,1.56-.82,5-2.12,2.81-4.41-1.6-1.68-4.56.66-6.15,1.45-4.79,2.38-5.67,3.57-5.67-2.18,0-5.46,1.23-12.42,0-17.7-.35-1.48-1-3.46-3.13-2.28-1.8,1-1.07,5.22-1.07,6.85,0,1.25.74,4.62-.56,5.1s-6-2.91-7.18-3.39c-1.59-.65-3.5-1.85-4.54.24-1.32,2.62,3.85,4.06,5.41,4.8,1.84.87,5.48,1.66,6.59,3.38s.28,6.36.28,8.38c0,1.5.76,6.58,0,7.85-.95,1.58-4.2,1-5.84.87-8.72-.77-16.06-7.05-17.27-15.88C105.76,42.6,110.3,36,117.34,31.86,121.78,29.23,120,26.28,122,22s5.79-7.62,10.43-5.95a15.36,15.36,0,0,1,9.55,10.45,18.3,18.3,0,0,1,.27,7.83c-.56,3.15-1.33,3,1,5.13,3.84,3.58,7,5.64,8.34,11.14S152,62.11,147.72,66Z" transform="translate(-5.41 -9.89)"/><path class="cls-11" d="M147.3,66.2c3-5.18,4.81-10.63,2.79-16.56a18.58,18.58,0,0,0-4-6.82c-1.18-1.23-5.29-2.9-5.83-4.31s1.09-4.39,1.22-6.09a16.05,16.05,0,0,0-1.13-7.35c-2.24-5.43-6.66-7.56-12-9.26,6.75-2.25,14.39-.61,17.75,6.07a13.89,13.89,0,0,1,1.2,8.89c-.83,4.13-2.55,4.79,1.3,7.39C159.65,45.65,159.88,59.68,147.3,66.2Z" transform="translate(-5.41 -9.89)"/><path class="cls-9" d="M142.35,67.24a65.84,65.84,0,0,1-18.8-.28C113.05,65.32,114,41.59,114,41.59l6.75-5.05s10.43-7.78,11.42-8,6.39,12.47,6.45,12.6,6.88,7.39,6.88,7.39,2.12,4.76,2.51,5.21S142.35,67.24,142.35,67.24Z" transform="translate(-5.41 -9.89)"/></g><g id="Layer_5" data-name="Layer 5"><line class="cls-12" x1="124.23" y1="61.21" x2="124.23" y2="24.7"/><line class="cls-12" x1="123.65" y1="36.62" x2="112.89" y2="30.29"/><line class="cls-12" x1="124.74" y1="47.58" x2="135.2" y2="42.95"/></g></svg>